{"title":"The.Choice.2016.TS.READNFO.XViD-26k","uid":13558437,"size":1471694381,"categoryP":"video","categoryS":"movies","magnet":"?xt=urn:btih:1411276f71d11f2da667926257fbc820de0f64b2&amp;dn=The.Choice.2016.TS.READNFO.XViD-26k&amp;tr=udp%3A%2F%2Ftracker.leechers-paradise.org%3A6969&amp;tr=udp%3A%2F%2Fzer0day.ch%3A1337&amp;tr=udp%3A%2F%2Fopen.demonii.com%3A1337&amp;tr=udp%3A%2F%2Ftracker.coppersurfer.tk%3A6969&amp;tr=udp%3A%2F%2Fexodus.desync.com%3A6969","seeders":0,"leechers":3,"uploader":".BONE.","files":1,"time":1455590610,"description":"[code]\r\n \r\n \r\n  \nhttp://www.imdb.com/title/tt3797868/\r\n \r\nPlot:\r\n \r\nTravis and Gabby first meet as neighbors in a small coastal town and wind up in a relationship that is tested by life's most defining events.\r\n \r\n \r\nSources - VIDEO: A Friend ....Thanks :P\r\n          AUDIO: VOSE ....Thanks :P\r\n \r\nComplete name               : The.Choice.2016.TS.READNFO.XViD-26k.avi\r\nFormat                      : AVI\r\nFormat/Info                 : Audio Video Interleave\r\nFile size                   : 1.37 GiB\r\nDuration                    : 1h 42mn\r\nOverall bit rate            : 1 915 Kbps\r\nWriting library             : VirtualDub build 32839/release\r\n \r\nVideo\r\nID                          : 0\r\nFormat                      : MPEG-4 Visual\r\nFormat profile              : Advanced   \r\nFormat settings, BVOP       : 2\r\nFormat settings, QPel       : Yes\r\nFormat settings, GMC        : No warppoints\r\nFormat settings, Matrix     : Default (H.263)\r\nMuxing mode                 : Packed bitstream\r\nCodec ID                    : XVID\r\nCodec ID/Hint               : XviD\r\nDuration                    : 1h 42mn\r\nBit rate                    : 1 777 Kbps\r\nWidth                       : 720 pixels\r\nHeight                      : 288 pixels\r\nDisplay aspect ratio        : 2.500\r\nFrame rate                  : 23.976 fps\r\nColor space                 : YUV\r\nChroma subsampling          : 4:2:0\r\nBit depth                   : 8 bits\r\nScan type                   : Progressive\r\nCompression mode            : Lossy\r\nBits/(Pixel*Frame)          : 0.357\r\nStream size                 : 1.27 GiB (93%)\r\nWriting library             : XviD 66\r\n \r\nAudio\r\nID                          : 1\r\nFormat                      : MPEG Audio\r\nFormat version              : Version 1\r\nFormat profile              : Layer 3\r\nMode                        : Joint stereo\r\nMode extension              : MS Stereo\r\nCodec ID                    : 55\r\nCodec ID/Hint               : MP3\r\nDuration                    : 1h 42mn\r\nBit rate mode               : Constant\r\nBit rate                    : 128 Kbps\r\nChannel(s)                  : 2 channels\r\nSampling rate               : 48.0 KHz\r\nCompression mode            : Lossy\r\nStream size                 : 93.8 MiB (7%)\r\nAlignment                   : Split accross interleaves\r\nInterleave, duration        : 42 ms (1.00 video frame)\r\nWriting library             : LAME3.99r\r\nEncoding settings           : -m j -V 4 -q 2 -lowpass 17 -b 128\r\n \r\nSAME VID AS OUR CAM RELEASE JUST ADDED THE NICE LiNE TO IT\r\n \r\n \r\n \r\nREASON FOR READNFO:\r\n \r\nDoes have HC Spanish (latino) subs thru whole movie and its not always perfectly straight..\r\n \r\nTook file rotate, perspectives a lil bit crop and resize. Then denoised it, adjusted RGB,\r\nbrightnes, intensity, contrast and added sum sharpness back to it...\r\n \r\nEnjoy til better source comes along :)\r\n \r\n[/code]\r\n \r\nScreens:\r\n \r\n \r\n[img]http://imgur.com/IaeStws.jpg[/img]\r\n[img]http://imgur.com/ICHld5j.jpg[/img]\r\n[img]http://imgur.com/oDHpIst.jpg[/img]\r\n[img]http://imgur.com/70GcYaE.jpg[/img]\r\n[img]http://imgur.com/VDeEAK3.jpg[/img]\r\n[img]http://imgur.com/LRQa5vL.jpg[/img]\r\n \r\nGreetz:\r\n \r\nTo those that deserve it. You know who you are..\r\n \r\n \r\nTo all the people who have helped me  you know who you are\r\n \r\nAnything to offer email us @:","torrent":{"xt":"urn:btih:1411276f71d11f2da667926257fbc820de0f64b2","amp;dn":"The.Choice.2016.TS.READNFO.XViD-26k","amp;tr":["udp%3A%2F%2Ftracker.leechers-paradise.org%3A6969","udp%3A%2F%2Fzer0day.ch%3A1337","udp%3A%2F%2Fopen.demonii.com%3A1337","udp%3A%2F%2Ftracker.coppersurfer.tk%3A6969","udp%3A%2F%2Fexodus.desync.com%3A6969"],"infoHash":"1411276f71d11f2da667926257fbc820de0f64b2","infoHashBuffer":{"type":"Buffer","data":[20,17,39,111,113,209,31,45,166,103,146,98,87,251,200,32,222,15,100,178]},"announce":[],"urlList":[]}}